<?xml version="1.0" encoding="UTF-8" standalone="no"?>
<!DOCTYPE svg PUBLIC "-//W3C//DTD SVG 1.1//EN"
 "http://www.w3.org/Graphics/SVG/1.1/DTD/svg11.dtd">
<!-- Generated by graphviz version 2.43.0 (0)
 -->
<!-- Title: %3 Pages: 1 -->
<svg width="214pt" height="784pt"
 viewBox="0.00 0.00 214.00 784.00" xmlns="http://www.w3.org/2000/svg" xmlns:xlink="http://www.w3.org/1999/xlink">
<g id="graph0" class="graph" transform="scale(1 1) rotate(0) translate(4 780)">
<title>%3</title>
<polygon fill="white" stroke="transparent" points="-4,4 -4,-780 210,-780 210,4 -4,4"/>
<!-- inputTokens -->
<g id="node1" class="node">
<title>inputTokens</title>
<polygon fill="none" stroke="black" points="48,-751 48,-772 159,-772 159,-751 48,-751"/>
<text text-anchor="start" x="51" y="-758.8" font-family="Times,serif" font-weight="bold" font-size="14.00">Input Tokens</text>
<polygon fill="none" stroke="black" points="48,-730 48,-751 95,-751 95,-730 48,-730"/>
<text text-anchor="start" x="66.5" y="-736.8" font-family="Times,serif" font-size="14.00">7</text>
<polygon fill="none" stroke="black" points="95,-730 95,-751 127,-751 127,-730 95,-730"/>
<text text-anchor="start" x="106" y="-736.8" font-family="Times,serif" font-size="14.00">4</text>
<polygon fill="none" stroke="black" points="127,-730 127,-751 159,-751 159,-730 127,-730"/>
<text text-anchor="start" x="138" y="-736.8" font-family="Times,serif" font-size="14.00">8</text>
</g>
<!-- TransformerDecoder -->
<g id="node2" class="node">
<title>TransformerDecoder</title>
<polygon fill="lightblue" stroke="lightblue" points="190,-690 16,-690 16,-654 190,-654 190,-690"/>
<text text-anchor="middle" x="103" y="-668.9" font-family="Helvetica,sans-Serif" font-size="12.00">Transformer Decoder Pass</text>
</g>
<!-- inputTokens&#45;&gt;TransformerDecoder -->
<g id="edge1" class="edge">
<title>inputTokens&#45;&gt;TransformerDecoder</title>
<path fill="none" stroke="black" d="M103,-725.64C103,-717.67 103,-708.77 103,-700.58"/>
<polygon fill="black" stroke="black" points="106.5,-700.38 103,-690.38 99.5,-700.38 106.5,-700.38"/>
</g>
<!-- logitsTable -->
<g id="node3" class="node">
<title>logitsTable</title>
<polygon fill="none" stroke="black" points="19,-593 19,-614 188,-614 188,-593 19,-593"/>
<text text-anchor="start" x="22" y="-600.8" font-family="Times,serif" font-weight="bold" font-size="14.00">Model Output Logits</text>
<polygon fill="none" stroke="black" points="19,-572 19,-593 85,-593 85,-572 19,-572"/>
<text text-anchor="start" x="30.5" y="-578.8" font-family="Times,serif" font-size="14.00">Token</text>
<polygon fill="none" stroke="black" points="85,-572 85,-593 188,-593 188,-572 85,-572"/>
<text text-anchor="start" x="97" y="-578.8" font-family="Times,serif" font-size="14.00">Probability</text>
<polygon fill="none" stroke="black" points="19,-551 19,-572 85,-572 85,-551 19,-551"/>
<text text-anchor="start" x="45.5" y="-557.8" font-family="Times,serif" font-size="14.00">+</text>
<polygon fill="none" stroke="black" points="85,-551 85,-572 188,-572 188,-551 85,-551"/>
<text text-anchor="start" x="125" y="-557.8" font-family="Times,serif" font-size="14.00">3%</text>
<polygon fill="none" stroke="black" points="19,-530 19,-551 85,-551 85,-530 19,-530"/>
<text text-anchor="start" x="41" y="-536.8" font-family="Times,serif" font-size="14.00">foo</text>
<polygon fill="none" stroke="black" points="85,-530 85,-551 188,-551 188,-530 85,-530"/>
<text text-anchor="start" x="125" y="-536.8" font-family="Times,serif" font-size="14.00">4%</text>
<polygon fill="none" stroke="black" points="19,-509 19,-530 85,-530 85,-509 19,-509"/>
<text text-anchor="start" x="49.5" y="-515.8" font-family="Times,serif" font-size="14.00">.</text>
<polygon fill="none" stroke="black" points="85,-509 85,-530 188,-530 188,-509 85,-509"/>
<text text-anchor="start" x="125" y="-515.8" font-family="Times,serif" font-size="14.00">7%</text>
<polygon fill="none" stroke="black" points="19,-488 19,-509 85,-509 85,-488 19,-488"/>
<text text-anchor="start" x="47" y="-494.8" font-family="Times,serif" font-size="14.00">1</text>
<polygon fill="none" stroke="black" points="85,-488 85,-509 188,-509 188,-488 85,-488"/>
<text text-anchor="start" x="120.5" y="-494.8" font-family="Times,serif" font-size="14.00">11%</text>
<polygon fill="none" stroke="black" points="19,-467 19,-488 85,-488 85,-467 19,-467"/>
<text text-anchor="start" x="47" y="-473.8" font-family="Times,serif" font-size="14.00">2</text>
<polygon fill="none" stroke="black" points="85,-467 85,-488 188,-488 188,-467 85,-467"/>
<text text-anchor="start" x="120.5" y="-473.8" font-family="Times,serif" font-size="14.00">13%</text>
<polygon fill="none" stroke="black" points="19,-446 19,-467 85,-467 85,-446 19,-446"/>
<text text-anchor="start" x="47" y="-452.8" font-family="Times,serif" font-size="14.00">3</text>
<polygon fill="none" stroke="black" points="85,-446 85,-467 188,-467 188,-446 85,-446"/>
<text text-anchor="start" x="120.5" y="-452.8" font-family="Times,serif" font-size="14.00">17%</text>
</g>
<!-- TransformerDecoder&#45;&gt;logitsTable -->
<g id="edge2" class="edge">
<title>TransformerDecoder&#45;&gt;logitsTable</title>
<path fill="none" stroke="black" d="M103,-653.83C103,-646.79 103,-638.04 103,-628.47"/>
<polygon fill="black" stroke="black" points="106.5,-628.25 103,-618.25 99.5,-628.25 106.5,-628.25"/>
</g>
<!-- OutlinesLogitsProcessor -->
<g id="node4" class="node">
<title>OutlinesLogitsProcessor</title>
<polygon fill="lightblue" stroke="lightblue" points="206,-406 0,-406 0,-370 206,-370 206,-406"/>
<text text-anchor="middle" x="103" y="-384.9" font-family="Helvetica,sans-Serif" font-size="12.00">Outlines Regex Logits Processor</text>
</g>
<!-- logitsTable&#45;&gt;OutlinesLogitsProcessor -->
<g id="edge3" class="edge">
<title>logitsTable&#45;&gt;OutlinesLogitsProcessor</title>
<path fill="none" stroke="black" d="M103,-441.93C103,-432.71 103,-423.91 103,-416.22"/>
<polygon fill="black" stroke="black" points="106.5,-416.17 103,-406.17 99.5,-416.17 106.5,-416.17"/>
</g>
<!-- logitsProcessorTable -->
<g id="node5" class="node">
<title>logitsProcessorTable</title>
<polygon fill="none" stroke="black" points="30,-309 30,-330 177,-330 177,-309 30,-309"/>
<text text-anchor="start" x="37" y="-316.8" font-family="Times,serif" font-weight="bold" font-size="14.00">Processed Logits</text>
<polygon fill="none" stroke="black" points="30,-288 30,-309 92,-309 92,-288 30,-288"/>
<text text-anchor="start" x="39.5" y="-294.8" font-family="Times,serif" font-size="14.00">Token</text>
<polygon fill="none" stroke="black" points="92,-288 92,-309 177,-309 177,-288 92,-288"/>
<text text-anchor="start" x="95" y="-294.8" font-family="Times,serif" font-size="14.00">Probability</text>
<polygon fill="none" stroke="black" points="30,-267 30,-288 92,-288 92,-267 30,-267"/>
<text text-anchor="start" x="54.5" y="-273.8" font-family="Times,serif" font-size="14.00">+</text>
<polygon fill="none" stroke="black" points="92,-267 92,-288 177,-288 177,-267 92,-267"/>
<text text-anchor="start" x="123" y="-273.8" font-family="Times,serif" font-size="14.00">0%</text>
<polygon fill="none" stroke="black" points="30,-246 30,-267 92,-267 92,-246 30,-246"/>
<text text-anchor="start" x="41" y="-536.8" font-family="Times,serif" font-size="14.00">foo</text>
<polygon fill="none" stroke="black" points="92,-246 92,-267 177,-267 177,-246 92,-246"/>
<text text-anchor="start" x="123" y="-252.8" font-family="Times,serif" font-size="14.00">0%</text>
<polygon fill="none" stroke="black" points="30,-225 30,-246 92,-246 92,-225 30,-225"/>
<text text-anchor="start" x="58.5" y="-231.8" font-family="Times,serif" font-size="14.00">.</text>
<polygon fill="none" stroke="black" points="92,-225 92,-246 177,-246 177,-225 92,-225"/>
<text text-anchor="start" x="123" y="-231.8" font-family="Times,serif" font-size="14.00">7%</text>
<polygon fill="none" stroke="black" points="30,-204 30,-225 92,-225 92,-204 30,-204"/>
<text text-anchor="start" x="56" y="-210.8" font-family="Times,serif" font-size="14.00">1</text>
<polygon fill="none" stroke="black" points="92,-204 92,-225 177,-225 177,-204 92,-204"/>
<text text-anchor="start" x="118.5" y="-210.8" font-family="Times,serif" font-size="14.00">11%</text>
<polygon fill="none" stroke="black" points="30,-183 30,-204 92,-204 92,-183 30,-183"/>
<text text-anchor="start" x="56" y="-189.8" font-family="Times,serif" font-size="14.00">2</text>
<polygon fill="none" stroke="black" points="92,-183 92,-204 177,-204 177,-183 92,-183"/>
<text text-anchor="start" x="118.5" y="-189.8" font-family="Times,serif" font-size="14.00">13%</text>
<polygon fill="none" stroke="black" points="30,-162 30,-183 92,-183 92,-162 30,-162"/>
<text text-anchor="start" x="56" y="-168.8" font-family="Times,serif" font-size="14.00">3</text>
<polygon fill="none" stroke="black" points="92,-162 92,-183 177,-183 177,-162 92,-162"/>
<text text-anchor="start" x="118.5" y="-168.8" font-family="Times,serif" font-size="14.00">17%</text>
</g>
<!-- OutlinesLogitsProcessor&#45;&gt;logitsProcessorTable -->
<g id="edge4" class="edge">
<title>OutlinesLogitsProcessor&#45;&gt;logitsProcessorTable</title>
<path fill="none" stroke="black" d="M103,-369.83C103,-362.79 103,-354.04 103,-344.47"/>
<polygon fill="black" stroke="black" points="106.5,-344.25 103,-334.25 99.5,-344.25 106.5,-344.25"/>
</g>
<!-- sampler -->
<g id="node6" class="node">
<title>sampler</title>
<polygon fill="lightblue" stroke="lightblue" points="136.5,-122 69.5,-122 69.5,-86 136.5,-86 136.5,-122"/>
<text text-anchor="middle" x="103" y="-100.9" font-family="Helvetica,sans-Serif" font-size="12.00">Sampler</text>
</g>
<!-- logitsProcessorTable&#45;&gt;sampler -->
<g id="edge5" class="edge">
<title>logitsProcessorTable&#45;&gt;sampler</title>
<path fill="none" stroke="black" d="M103,-157.93C103,-148.71 103,-139.91 103,-132.22"/>
<polygon fill="black" stroke="black" points="106.5,-132.17 103,-122.17 99.5,-132.17 106.5,-132.17"/>
</g>
<!-- sampledTokenTable -->
<g id="node7" class="node">
<title>sampledTokenTable</title>
<polygon fill="none" stroke="black" points="40,-25 40,-46 166,-46 166,-25 40,-25"/>
<text text-anchor="start" x="43" y="-32.8" font-family="Times,serif" font-weight="bold" font-size="14.00">Sampled Token</text>
<polygon fill="none" stroke="black" points="40,-4 40,-25 119,-25 119,-4 40,-4"/>
<text text-anchor="start" x="58" y="-10.8" font-family="Times,serif" font-size="14.00">Token</text>
<polygon fill="none" stroke="black" points="119,-4 119,-25 166,-25 166,-4 119,-4"/>
<text text-anchor="start" x="137.5" y="-10.8" font-family="Times,serif" font-size="14.00">3</text>
</g>
<!-- sampler&#45;&gt;sampledTokenTable -->
<g id="edge6" class="edge">
<title>sampler&#45;&gt;sampledTokenTable</title>
<path fill="none" stroke="black" d="M103,-85.91C103,-78.33 103,-69.13 103,-60.23"/>
<polygon fill="black" stroke="black" points="106.5,-60.05 103,-50.05 99.5,-60.05 106.5,-60.05"/>
</g>
</g>
</svg>
