<?xml version="1.0" encoding="UTF-8"?>
<svg id="Layer_2" xmlns="http://www.w3.org/2000/svg" version="1.1" viewBox="0 0 129.1 196.3">
  <!-- Generator: Adobe Illustrator 29.0.1, SVG Export Plug-In . SVG Version: 2.1.0 Build 192)  -->
  <defs>
    <style>
      .st0 {
        fill: #1d1d1b;
      }
    </style>
  </defs>
  <g id="Layer_1-2">
    <rect class="st0" x="39.1" y="3.9" width="3.9" height="3.9"/>
    <path class="st0" d="M46.9,7.8h7.8v-3.9h-3.9V0h-7.8v3.9h3.9v3.9Z"/>
    <path class="st0" d="M58.7,7.8h7.8v-3.9h-3.9V0h-7.8v3.9h3.9v3.9Z"/>
    <path class="st0" d="M70.4,7.8h7.8v-3.9h-3.9V0h-7.8v3.9h3.9v3.9Z"/>
    <path class="st0" d="M82.2,7.8h3.9v3.9h11.7v-3.9h3.9v-3.9h-3.9V0h-7.8v3.9h3.9v3.9h-3.9v-3.9h-3.9V0h-7.8v3.9h3.9v3.9Z"/>
    <path class="st0" d="M105.6,7.8h7.8v3.9h7.8v-3.9h-3.9v-3.9h-7.8V0h-7.8v3.9h3.9v3.9Z"/>
    <rect class="st0" x="43" y="7.8" width="3.9" height="3.9"/>
    <rect class="st0" x="54.8" y="7.8" width="3.9" height="3.9"/>
    <rect class="st0" x="66.5" y="7.8" width="3.9" height="3.9"/>
    <rect class="st0" x="78.2" y="7.8" width="3.9" height="3.9"/>
    <rect class="st0" x="101.7" y="7.8" width="3.9" height="3.9"/>
    <path class="st0" d="M39.1,39.1h39.1v-3.9h-39.1v3.9Z"/>
    <path class="st0" d="M31.3,50.9v3.9h43v-3.9H31.3Z"/>
    <path class="st0" d="M43,101.7h66.5v-3.9H43v-7.8h35.2v-3.9h31.3v-3.9h-27.4v-7.8h3.9v-3.9h23.5v-3.9h-19.5v-7.8h3.9v-3.9h15.6v-3.9h-11.7v-7.8h3.9v-3.9h7.8v-3.9h-3.9v-3.9h3.9v-11.7h3.9v-7.8h-7.8v7.8h-3.9v7.8h-3.9v7.8h-3.9v7.8h-3.9v7.8h-3.9v7.8h-3.9v7.8h-3.9v7.8h-3.9v7.8H7.8v-11.7h3.9v-7.8h3.9v-7.8h3.9v-7.8h3.9v-7.8h3.9v-7.8h3.9v-7.8h3.9v-7.8h3.9v-7.8h-7.8v7.8h-3.9v7.8h-3.9v7.8h-3.9v7.8h-3.9v7.8h-3.9v7.8h-3.9v7.8h-3.9v7.8H0v15.6h7.8v3.9h27.4v19.6h7.8v-7.8Z"/>
    <path class="st0" d="M125.2,11.7h-3.9v97.8h-3.9v3.9H50.9v-3.9h-7.8v7.8h7.8v3.9h66.5v-3.9h7.8v-7.8h3.9V11.7h-3.9Z"/>
    <path class="st0" d="M.3,196.3v-7.4h7.3v7.4H.3Z"/>
    <path class="st0" d="M19.5,196.3v-44.2H4.8v-7.4h36.8v7.4h-14.7v44.2h-7.4Z"/>
    <path class="st0" d="M46.6,196.3v-11h3.7v-3.7h3.7v-3.7h3.7v-3.7h3.7v-7.4h-3.7v-3.7h-3.7v-3.7h-3.7v-3.7h-3.7v-11.1h7.3v7.4h3.7v3.7h3.7v3.7h3.7v3.7h3.7v-3.7h3.7v-3.7h3.7v-3.7h3.7v-7.4h7.4v11.1h-3.7v3.7h-3.7v3.7h-3.7v3.7h-3.7v7.4h3.7v3.7h3.7v3.7h3.7v3.7h3.7v11h-7.4v-7.4h-3.7v-3.7h-3.7v-3.7h-3.7v-3.7h-3.7v3.7h-3.7v3.7h-3.7v3.7h-3.7v7.4h-7.4Z"/>
    <path class="st0" d="M106.9,196.3v-44.2h-14.7v-7.4h36.8v7.4h-14.7v44.2h-7.3Z"/>
  </g>
</svg>
