<?xml version="1.0" encoding="UTF-8" standalone="no"?>
<svg
   width="95.38842"
   height="113.55765"
   viewBox="0 0 95.388419 113.55765"
   fill="none"
   version="1.1"
   id="svg314"
   sodipodi:docname="logo-square.svg"
   xml:space="preserve"
   inkscape:version="1.3.2 (091e20ef0f, 2023-11-25, custom)"
   inkscape:export-filename="logo.png"
   inkscape:export-xdpi="270.25565"
   inkscape:export-ydpi="270.25565"
   xmlns:inkscape="http://www.inkscape.org/namespaces/inkscape"
   xmlns:sodipodi="http://sodipodi.sourceforge.net/DTD/sodipodi-0.dtd"
   xmlns="http://www.w3.org/2000/svg"
   xmlns:svg="http://www.w3.org/2000/svg"><defs
     id="defs314" /><sodipodi:namedview
     id="namedview314"
     pagecolor="#ffffff"
     bordercolor="#000000"
     borderopacity="0.25"
     inkscape:showpageshadow="2"
     inkscape:pageopacity="0.0"
     inkscape:pagecheckerboard="0"
     inkscape:deskcolor="#d1d1d1"
     showgrid="false"
     showguides="true"
     inkscape:zoom="1.0083333"
     inkscape:cx="280.66117"
     inkscape:cy="25.785125"
     inkscape:window-width="3440"
     inkscape:window-height="1416"
     inkscape:window-x="0"
     inkscape:window-y="0"
     inkscape:window-maximized="1"
     inkscape:current-layer="svg314"><sodipodi:guide
       position="-146.75933,64.2455"
       orientation="0,-1"
       id="guide314"
       inkscape:locked="false" /><sodipodi:guide
       position="275.80377,3.1942902"
       orientation="1,0"
       id="guide315"
       inkscape:locked="false" /></sodipodi:namedview><g
     id="g13"
     transform="matrix(0.16222521,0,0,0.16222521,-221.77667,-24.740002)"
     style="fill:#e35a26;fill-opacity:1"><g
       id="g314"
       transform="translate(1367.0913,152.50405)"
       style="fill:#e35a26;fill-opacity:1"><rect
         x="28"
         y="644"
         width="28"
         height="28"
         id="rect1"
         style="fill:#e35a26;fill-opacity:1" /><path
         d="M 28,196 H 168 V 168 H 28 V 140 H 0 v 504 h 28 z"
         id="path1-7"
         style="fill:#e35a26;fill-opacity:1" /><rect
         x="28"
         y="112"
         width="28"
         height="28"
         id="rect2"
         style="fill:#e35a26;fill-opacity:1" /><path
         d="m 84,560 v 28 h 420 v -28 z"
         id="path2-0"
         style="fill:#e35a26;fill-opacity:1" /><path
         d="m 84,476 v 28 h 420 v -28 z"
         id="path3-4"
         style="fill:#e35a26;fill-opacity:1" /><path
         d="m 84,392 v 28 h 420 v -28 z"
         id="path4-0"
         style="fill:#e35a26;fill-opacity:1" /><path
         d="m 84,308 v 28 h 420 v -28 z"
         id="path5-8"
         style="fill:#e35a26;fill-opacity:1" /><path
         d="m 364,168 v 28 h 140 v -28 z"
         id="path6-5"
         style="fill:#e35a26;fill-opacity:1" /><path
         d="m 336,196 v -28 h -56 v 28 z"
         id="path7-1"
         style="fill:#e35a26;fill-opacity:1" /><path
         d="M 336,112 V 84 h -56 v 28 z"
         id="path8-6"
         style="fill:#e35a26;fill-opacity:1" /><path
         d="m 364,84 v 28 H 504 V 84 Z"
         id="path9-6"
         style="fill:#e35a26;fill-opacity:1" /><path
         d="m 56,672 v 28 h 476 v -28 z"
         id="path10-2"
         style="fill:#e35a26;fill-opacity:1" /><rect
         x="56"
         y="84"
         width="28"
         height="28"
         id="rect10"
         style="fill:#e35a26;fill-opacity:1" /><rect
         x="112"
         y="28"
         width="28"
         height="28"
         id="rect11"
         style="fill:#e35a26;fill-opacity:1" /><rect
         x="84"
         y="56"
         width="28"
         height="28"
         id="rect12"
         style="fill:#e35a26;fill-opacity:1" /><path
         d="m 168,56 v 112 h 28 V 28 H 560 V 0 H 140 v 28 h 28 z"
         id="path12-1"
         style="fill:#e35a26;fill-opacity:1" /><path
         d="m 560,28 v 616 h 28 V 28 Z"
         id="path13-9"
         style="fill:#e35a26;fill-opacity:1" /><rect
         x="532"
         y="644"
         width="28"
         height="28"
         id="rect13"
         style="fill:#e35a26;fill-opacity:1" /></g></g></svg>
