<?xml version="1.0" encoding="UTF-8" standalone="no"?>
<svg
   width="348"
   height="95"
   viewBox="0 0 348 95"
   fill="none"
   version="1.1"
   id="svg39"
   sodipodi:docname="logo-dark-mode.svg"
   inkscape:export-filename="../projects/outlines/docs/assets/images/logo-light.png"
   inkscape:export-xdpi="96"
   inkscape:export-ydpi="96"
   inkscape:version="1.4 (e7c3feb1, 2024-10-09)"
   xmlns:inkscape="http://www.inkscape.org/namespaces/inkscape"
   xmlns:sodipodi="http://sodipodi.sourceforge.net/DTD/sodipodi-0.dtd"
   xmlns="http://www.w3.org/2000/svg"
   xmlns:svg="http://www.w3.org/2000/svg">
  <sodipodi:namedview
     id="namedview39"
     pagecolor="#ffffff"
     bordercolor="#000000"
     borderopacity="0.25"
     inkscape:showpageshadow="2"
     inkscape:pageopacity="0.0"
     inkscape:pagecheckerboard="0"
     inkscape:deskcolor="#d1d1d1"
     inkscape:zoom="0.27368421"
     inkscape:cx="283.17308"
     inkscape:cy="45.673077"
     inkscape:window-width="1416"
     inkscape:window-height="818"
     inkscape:window-x="30"
     inkscape:window-y="38"
     inkscape:window-maximized="0"
     inkscape:current-layer="svg39" />
  <g
     clip-path="url(#clip0_56_2)"
     id="g39">
    <path
       d="M101.92 79.3501C101.92 83.0601 99.78 85.3201 96.88 85.3201C95.13 85.3201 94.03 84.4601 93.43 83.6801H93.39V84.9801H91.07V69.1801H93.39V75.0601H93.43C94.03 74.2001 95.13 73.3801 96.88 73.3801C99.77 73.3801 101.92 75.6301 101.92 79.3501ZM99.6 79.3501C99.6 77.1401 98.52 75.2801 96.48 75.2801C94.58 75.2801 93.41 76.8301 93.41 79.3501C93.41 81.8701 94.58 83.4201 96.48 83.4201C98.51 83.4201 99.6 81.5601 99.6 79.3501Z"
       fill="white"
       id="path1" />
    <path
       d="M108.52 85.69C107.88 87.44 107.15 88.83 104.98 88.83C104.32 88.83 103.76 88.72 103.32 88.61V86.84H103.52C104.49 86.97 105.22 86.91 105.73 86.29C106.15 85.78 106.46 84.9 106.04 83.84L101.95 73.7H104.45L107.61 82.34H107.65L110.55 73.7H113.02L108.51 85.7L108.52 85.69Z"
       fill="white"
       id="path2" />
    <path
       d="M121.12 84.98V83.84H119.98V82.7H118.84V75.82H119.98V74.68H121.12V73.54H125.7V74.68H126.85V68.95H129.14V84.99H126.85V83.85H125.7V84.99H121.12V84.98ZM125.7 82.7V81.56H126.85V76.97H125.7V75.83H122.26V76.97H121.12V81.56H122.26V82.7H125.7Z"
       fill="white"
       id="path3" />
    <path
       d="M133.7 84.98V83.84H132.56V82.7H131.42V75.82H132.56V74.68H133.7V73.54H139.43V74.68H140.57V75.82H141.71V82.7H140.57V83.84H139.43V84.98H133.7ZM138.29 82.7V81.56H139.44V76.97H138.29V75.83H134.85V76.97H133.71V81.56H134.85V82.7H138.29Z"
       fill="white"
       id="path4" />
    <path
       d="M146.36 84.98V83.84H145.22V75.25H143.5V73.53H145.22V70.09H147.51V73.53H149.8V75.25H147.51V82.7H149.8V84.99H146.36V84.98Z"
       fill="#FFFDFD"
       id="path5" />
    <path
       d="M154.34 84.98V83.84H153.2V75.25H151.48V73.53H153.2V70.09H155.49V73.53H157.78V75.25H155.49V82.7H157.78V84.99H154.34V84.98Z"
       fill="white"
       id="path6" />
    <path
       d="M159.47 84.98V83.26H160.61V82.12H161.75V80.97H162.89V79.83H164.04V78.69H162.89V77.55H161.75V76.4H160.61V75.26H159.47V73.54H161.76V74.68H162.9V75.82H164.05V76.96H166.34V75.82H167.49V74.68H168.63V73.54H170.92V75.26H169.78V76.4H168.64V77.55H167.5V78.69H166.35V79.83H167.5V80.97H168.64V82.12H169.78V83.26H170.92V84.98H168.63V83.84H167.49V82.7H166.34V81.56H164.05V82.7H162.9V83.84H161.76V84.98H159.47Z"
       fill="white"
       id="path7" />
    <path
       d="M175.45 84.98V83.84H174.31V75.25H172.59V73.53H174.31V70.09H176.6V73.53H178.89V75.25H176.6V82.7H178.89V84.99H175.45V84.98Z"
       fill="white"
       id="path8" />
    <path
       d="M180.83 84.9799V82.6899H183.12V84.9799H180.83Z"
       fill="#FFFEFE"
       id="path9" />
    <path
       d="M187.59 84.9801V83.8401H186.45V82.7001H185.31V80.4101H186.45V79.2701H188.74V78.1301H193.33V76.9801H192.18V75.8401H188.74V76.9801H185.31V75.8401H186.45V74.7001H187.59V73.5601H193.32V74.7001H194.46V75.8401H195.6V85.0001H193.31V83.8601H192.16V85.0001H187.58L187.59 84.9801ZM192.17 82.7001V81.5601H193.32V79.2701H192.17V80.4101H188.16V82.7001H192.17Z"
       fill="white"
       id="path10" />
    <path
       d="M197.96 71.81V69.52H200.25V71.81H197.96ZM197.96 84.98V73.53H200.25V84.98H197.96Z"
       fill="white"
       id="path11" />
    <path
       d="M15.18 39.46V42.5H54.64V39.46H15.18Z"
       fill="#E35A26"
       id="path12" />
    <path
       d="M39.46 30.3501V27.3101H15.18V30.3501H39.46Z"
       fill="#E35A26"
       id="path13" />
    <path
       d="M48.57 27.3199H45.53V30.3599H48.57V27.3199Z"
       fill="#E35A26"
       id="path14" />
    <path
       d="M51.6 24.28H48.56V27.32H51.6V24.28Z"
       fill="#E35A26"
       id="path15" />
    <path
       d="M54.64 27.3199H51.6V30.3599H54.64V27.3199Z"
       fill="#E35A26"
       id="path16" />
    <path
       d="M48.57 21.25H45.53V24.29H48.57V21.25Z"
       fill="#E35A26"
       id="path17" />
    <path
       d="M54.64 21.25H51.6V24.29H54.64V21.25Z"
       fill="#E35A26"
       id="path18" />
    <path
       d="M15.18 51.6V54.64H54.64V51.6H15.18Z"
       fill="#E35A26"
       id="path19" />
    <path
       d="M39.46 24.28V21.24H15.18V24.28H39.46Z"
       fill="#E35A26"
       id="path20" />
    <path
       d="M15.18 63.74V66.78H54.64V63.74H15.18Z"
       fill="#E35A26"
       id="path21" />
    <path
       d="M15.18 75.88V78.92H54.64V75.88H15.18Z"
       fill="#E35A26"
       id="path22" />
    <path
       d="M15.18 6.07H21.25V3.03H18.21V0H12.14V3.04H15.18V6.08V6.07Z"
       fill="#E35A26"
       id="path23" />
    <path
       d="M24.28 6.07H30.35V3.03H27.31V0H21.24V3.04H24.28V6.08V6.07Z"
       fill="#E35A26"
       id="path24" />
    <path
       d="M33.39 6.07H36.43V9.11H45.54V6.07H48.58V3.03H45.54V0H39.47V3.04H42.51V6.08H39.47V3.04H36.43V0H30.36V3.04H33.4V6.08L33.39 6.07Z"
       fill="#E35A26"
       id="path25" />
    <path
       d="M51.6 6.07H48.56V9.11H54.63V6.07H57.67V3.03H54.63V0H48.56V3.04H51.6V6.08V6.07Z"
       fill="#E35A26"
       id="path26" />
    <path
       d="M60.71 0H57.67V3.04H60.71V0Z"
       fill="#E35A26"
       id="path27" />
    <path
       d="M15.18 6.06995H12.14V9.10995H15.18V6.06995Z"
       fill="#E35A26"
       id="path28" />
    <path
       d="M24.29 6.06995H21.25V9.10995H24.29V6.06995Z"
       fill="#E35A26"
       id="path29" />
    <path
       d="M33.39 6.06995H30.35V9.10995H33.39V6.06995Z"
       fill="#E35A26"
       id="path30" />
    <path
       d="M66.77 9.11003V6.07003H63.73V3.03003H60.69V6.07003H57.65V9.11003H63.72V84.99H60.68V88.03H9.11V84.99H6.07V9.11003H9.11V6.07003H12.15V3.03003H6.08V6.07003H3.04V9.11003H0V84.99H3.04V91.06H9.11V94.1H60.71V91.06H66.78V84.99H69.82V9.11003H66.78H66.77Z"
       fill="#E35A26"
       id="path31" />
    <path
       d="M102.09 60.7V57.02H98.41V53.34H94.73V49.66H91.05V20.16H94.73V16.48H98.41V12.8H102.09V9.09998H124.21V12.8H127.89V16.48H131.59V20.16H135.27V49.66H131.59V53.34H127.89V57.02H124.21V60.7H102.09ZM120.53 53.34V49.66H124.21V45.96H127.89V23.87H124.21V20.17H120.53V16.49H105.79V20.17H102.09V23.87H98.41V45.96H102.09V49.66H105.79V53.34H120.53Z"
       fill="#E35A26"
       id="path32" />
    <path
       d="M149.89 60.7V57.02H146.21V53.34H142.53V23.87H149.89V49.67H153.57V53.35H162.79V49.67H166.47V23.87H173.85V60.7H166.47V57.02H162.79V60.7H149.89Z"
       fill="#E35A26"
       id="path33" />
    <path
       d="M189.18 60.7001V57.0201H185.5V29.38H179.98V23.86H185.5V12.8H192.88V23.86H200.24V29.38H192.88V53.34H200.24V60.7001H189.18Z"
       fill="#E35A26"
       id="path34" />
    <path
       d="M206.38 60.7001V12.8101H213.74V60.7001H206.38Z"
       fill="#E35A26"
       id="path35" />
    <path
       d="M221.2 20.1701V12.8101H228.56V20.1701H221.2ZM221.2 60.7001V23.8701H228.56V60.7001H221.2Z"
       fill="#E35A26"
       id="path36" />
    <path
       d="M236 60.7V23.87H243.36V27.55H247.04V23.87H259.94V27.55H263.64V31.23H267.32V60.7H259.94V34.9H256.26V31.22H247.04V34.9H243.36V60.7H236Z"
       fill="#E35A26"
       id="path37" />
    <path
       d="M281.73 60.7V57.02H278.05V53.34H274.37V31.22H278.05V27.54H281.73V23.86H300.17V27.54H303.85V31.22H307.53V44.12H281.73V49.66H285.41V53.34H296.47V49.66H307.53V53.34H303.85V57.02H300.17V60.7H281.73ZM300.18 38.61V34.91H296.48V31.23H285.42V34.91H281.74V38.61H300.18Z"
       fill="#E35A26"
       id="path38" />
    <path
       d="M321.81 60.7V57.02H318.13V53.34H314.45V49.66H325.48V53.34H338.38V45.96H325.48V42.28H318.12V38.6H314.44V31.22H318.12V27.54H321.8V23.86H340.24V27.54H343.92V31.22H347.6V34.9H336.54V31.22H323.64V38.6H336.54V42.28H343.92V45.96H347.6V53.34H343.92V57.02H340.24V60.7H321.8H321.81Z"
       fill="#E35A26"
       id="path39" />
  </g>
  <defs
     id="defs39">
    <clipPath
       id="clip0_56_2">
      <rect
         width="347.6"
         height="94.09"
         fill="white"
         id="rect39" />
    </clipPath>
  </defs>
</svg>
