<?xml version="1.0" encoding="UTF-8" standalone="no"?>
<svg
   width="69.82"
   height="94.089996"
   viewBox="0 0 69.82 94.089996"
   fill="none"
   version="1.1"
   id="svg39"
   sodipodi:docname="Outlines_white dottxt.ai.svg"
   inkscape:export-filename="../projects/outlines/docs/assets/images/logo-dark-mode.png"
   inkscape:export-xdpi="137.93103"
   inkscape:export-ydpi="137.93103"
   inkscape:version="1.4 (e7c3feb1, 2024-10-09)"
   xmlns:inkscape="http://www.inkscape.org/namespaces/inkscape"
   xmlns:sodipodi="http://sodipodi.sourceforge.net/DTD/sodipodi-0.dtd"
   xmlns="http://www.w3.org/2000/svg"
   xmlns:svg="http://www.w3.org/2000/svg">
  <sodipodi:namedview
     id="namedview39"
     pagecolor="#ffffff"
     bordercolor="#000000"
     borderopacity="0.25"
     inkscape:showpageshadow="2"
     inkscape:pageopacity="0.0"
     inkscape:pagecheckerboard="0"
     inkscape:deskcolor="#d1d1d1"
     inkscape:zoom="0.27368421"
     inkscape:cx="171.73077"
     inkscape:cy="45.673077"
     inkscape:window-width="1416"
     inkscape:window-height="820"
     inkscape:window-x="30"
     inkscape:window-y="38"
     inkscape:window-maximized="0"
     inkscape:current-layer="g39" />
  <g
     clip-path="url(#clip0_56_2)"
     id="g39">
    <path
       d="M 15.18,39.46 V 42.5 H 54.64 V 39.46 Z"
       fill="#e35a26"
       id="path12" />
    <path
       d="m 39.46,30.3501 v -3.04 H 15.18 v 3.04 z"
       fill="#e35a26"
       id="path13" />
    <path
       d="m 48.57,27.3199 h -3.04 v 3.04 h 3.04 z"
       fill="#e35a26"
       id="path14" />
    <path
       d="m 51.6,24.28 h -3.04 v 3.04 h 3.04 z"
       fill="#e35a26"
       id="path15" />
    <path
       d="M 54.64,27.3199 H 51.6 v 3.04 h 3.04 z"
       fill="#e35a26"
       id="path16" />
    <path
       d="m 48.57,21.25 h -3.04 v 3.04 h 3.04 z"
       fill="#e35a26"
       id="path17" />
    <path
       d="M 54.64,21.25 H 51.6 v 3.04 h 3.04 z"
       fill="#e35a26"
       id="path18" />
    <path
       d="m 15.18,51.6 v 3.04 H 54.64 V 51.6 Z"
       fill="#e35a26"
       id="path19" />
    <path
       d="M 39.46,24.28 V 21.24 H 15.18 v 3.04 z"
       fill="#e35a26"
       id="path20" />
    <path
       d="m 15.18,63.74 v 3.04 h 39.46 v -3.04 z"
       fill="#e35a26"
       id="path21" />
    <path
       d="m 15.18,75.88 v 3.04 h 39.46 v -3.04 z"
       fill="#e35a26"
       id="path22" />
    <path
       d="m 15.18,6.07 h 6.07 V 3.03 H 18.21 V 0 h -6.07 v 3.04 h 3.04 v 3.04 z"
       fill="#e35a26"
       id="path23" />
    <path
       d="m 24.28,6.07 h 6.07 V 3.03 H 27.31 V 0 h -6.07 v 3.04 h 3.04 v 3.04 z"
       fill="#e35a26"
       id="path24" />
    <path
       d="m 33.39,6.07 h 3.04 v 3.04 h 9.11 V 6.07 h 3.04 V 3.03 H 45.54 V 0 h -6.07 v 3.04 h 3.04 V 6.08 H 39.47 V 3.04 H 36.43 V 0 h -6.07 v 3.04 h 3.04 v 3.04 z"
       fill="#e35a26"
       id="path25" />
    <path
       d="m 51.6,6.07 h -3.04 v 3.04 h 6.07 V 6.07 h 3.04 V 3.03 H 54.63 V 0 h -6.07 v 3.04 h 3.04 v 3.04 z"
       fill="#e35a26"
       id="path26" />
    <path
       d="m 60.71,0 h -3.04 v 3.04 h 3.04 z"
       fill="#e35a26"
       id="path27" />
    <path
       d="m 15.18,6.06995 h -3.04 v 3.04 h 3.04 z"
       fill="#e35a26"
       id="path28" />
    <path
       d="m 24.29,6.06995 h -3.04 v 3.04 h 3.04 z"
       fill="#e35a26"
       id="path29" />
    <path
       d="m 33.39,6.06995 h -3.04 v 3.04 h 3.04 z"
       fill="#e35a26"
       id="path30" />
    <path
       d="m 66.77,9.11003 v -3.04 h -3.04 v -3.04 h -3.04 v 3.04 h -3.04 v 3.04 h 6.07 V 84.99 h -3.04 v 3.04 H 9.11 V 84.99 H 6.07 V 9.11003 h 3.04 v -3.04 h 3.04 v -3.04 H 6.08 v 3.04 H 3.04 v 3.04 H 0 V 84.99 h 3.04 v 6.07 h 6.07 v 3.04 h 51.6 v -3.04 h 6.07 v -6.07 h 3.04 V 9.11003 h -3.04 z"
       fill="#e35a26"
       id="path31" />
  </g>
  <defs
     id="defs39">
    <clipPath
       id="clip0_56_2">
      <rect
         width="347.60001"
         height="94.089996"
         fill="#ffffff"
         id="rect39"
         x="0"
         y="0" />
    </clipPath>
  </defs>
</svg>
