<?xml version="1.0" encoding="UTF-8"?><svg id="Layer_2" xmlns="http://www.w3.org/2000/svg" viewBox="0 0 347.6 94.09"><defs><style>.cls-1{fill:#e35a26;}</style></defs><g id="Layer_1-2"><path d="M101.92,79.35c0,3.71-2.14,5.97-5.04,5.97-1.75,0-2.85-.86-3.45-1.64h-.04v1.3h-2.32v-15.8h2.32v5.88h.04c.6-.86,1.7-1.68,3.45-1.68,2.89,0,5.04,2.25,5.04,5.97ZM99.6,79.35c0-2.21-1.08-4.07-3.12-4.07-1.9,0-3.07,1.55-3.07,4.07s1.17,4.07,3.07,4.07c2.03,0,3.12-1.86,3.12-4.07Z"/><path d="M108.52,85.69c-.64,1.75-1.37,3.14-3.54,3.14-.66,0-1.22-.11-1.66-.22v-1.77h.2c.97.13,1.7.07,2.21-.55.42-.51.73-1.39.31-2.45l-4.09-10.14h2.5l3.16,8.64h.04l2.9-8.64h2.47l-4.51,12Z"/><path d="M121.12,84.98v-1.14h-1.14v-1.14h-1.14v-6.88h1.14v-1.14h1.14v-1.14h4.58v1.14h1.15v-5.73h2.29v16.04h-2.29v-1.14h-1.15v1.14h-4.58ZM125.7,82.7v-1.14h1.15v-4.59h-1.15v-1.14h-3.44v1.14h-1.14v4.59h1.14v1.14h3.44Z"/><path d="M133.7,84.98v-1.14h-1.14v-1.14h-1.14v-6.88h1.14v-1.14h1.14v-1.14h5.73v1.14h1.14v1.14h1.14v6.88h-1.14v1.14h-1.14v1.14h-5.73ZM138.29,82.7v-1.14h1.15v-4.59h-1.15v-1.14h-3.44v1.14h-1.14v4.59h1.14v1.14h3.44Z"/><path d="M146.36,84.98v-1.14h-1.14v-8.59h-1.72v-1.72h1.72v-3.44h2.29v3.44h2.29v1.72h-2.29v7.45h2.29v2.29h-3.44Z"/><path d="M154.34,84.98v-1.14h-1.14v-8.59h-1.72v-1.72h1.72v-3.44h2.29v3.44h2.29v1.72h-2.29v7.45h2.29v2.29h-3.44Z"/><path d="M159.47,84.98v-1.72h1.14v-1.14h1.14v-1.15h1.14v-1.14h1.15v-1.14h-1.15v-1.14h-1.14v-1.15h-1.14v-1.14h-1.14v-1.72h2.29v1.14h1.14v1.14h1.15v1.14h2.29v-1.14h1.15v-1.14h1.14v-1.14h2.29v1.72h-1.14v1.14h-1.14v1.15h-1.14v1.14h-1.15v1.14h1.15v1.14h1.14v1.15h1.14v1.14h1.14v1.72h-2.29v-1.14h-1.14v-1.14h-1.15v-1.14h-2.29v1.14h-1.15v1.14h-1.14v1.14h-2.29Z"/><path d="M175.45,84.98v-1.14h-1.14v-8.59h-1.72v-1.72h1.72v-3.44h2.29v3.44h2.29v1.72h-2.29v7.45h2.29v2.29h-3.44Z"/><path d="M180.83,84.98v-2.29h2.29v2.29h-2.29Z"/><path d="M187.59,84.98v-1.14h-1.14v-1.14h-1.14v-2.29h1.14v-1.14h2.29v-1.14h4.59v-1.15h-1.15v-1.14h-3.44v1.14h-3.43v-1.14h1.14v-1.14h1.14v-1.14h5.73v1.14h1.14v1.14h1.14v9.16h-2.29v-1.14h-1.15v1.14h-4.58ZM192.17,82.7v-1.14h1.15v-2.29h-1.15v1.14h-4.01v2.29h4.01Z"/><path d="M197.96,71.81v-2.29h2.29v2.29h-2.29ZM197.96,84.98v-11.45h2.29v11.45h-2.29Z"/><path class="cls-1" d="M15.18,39.46v3.04h39.46v-3.04H15.18Z"/><path class="cls-1" d="M39.46,30.35v-3.04H15.18v3.04h24.28Z"/><rect class="cls-1" x="45.53" y="27.32" width="3.04" height="3.04"/><rect class="cls-1" x="48.56" y="24.28" width="3.04" height="3.04"/><rect class="cls-1" x="51.6" y="27.32" width="3.04" height="3.04"/><rect class="cls-1" x="45.53" y="21.25" width="3.04" height="3.04"/><rect class="cls-1" x="51.6" y="21.25" width="3.04" height="3.04"/><path class="cls-1" d="M15.18,51.6v3.04h39.46v-3.04H15.18Z"/><path class="cls-1" d="M39.46,24.28v-3.04H15.18v3.04h24.28Z"/><path class="cls-1" d="M15.18,63.74v3.04h39.46v-3.04H15.18Z"/><path class="cls-1" d="M15.18,75.88v3.04h39.46v-3.04H15.18Z"/><path class="cls-1" d="M15.18,6.07h6.07v-3.04h-3.04V0h-6.07v3.04h3.04v3.04Z"/><path class="cls-1" d="M24.28,6.07h6.07v-3.04h-3.04V0h-6.07v3.04h3.04v3.04Z"/><path class="cls-1" d="M33.39,6.07h3.04v3.04h9.11v-3.04h3.04v-3.04h-3.04V0h-6.07v3.04h3.04v3.04h-3.04v-3.04h-3.04V0h-6.07v3.04h3.04v3.04Z"/><path class="cls-1" d="M51.6,6.07h-3.04v3.04h6.07v-3.04h3.04v-3.04h-3.04V0h-6.07v3.04h3.04v3.04Z"/><rect class="cls-1" x="57.67" width="3.04" height="3.04"/><rect class="cls-1" x="12.14" y="6.07" width="3.04" height="3.04"/><rect class="cls-1" x="21.25" y="6.07" width="3.04" height="3.04"/><rect class="cls-1" x="30.35" y="6.07" width="3.04" height="3.04"/><path class="cls-1" d="M66.77,9.11v-3.04h-3.04v-3.04h-3.04v3.04h-3.04v3.04h6.07v75.88h-3.04v3.04H9.11v-3.04h-3.04V9.11h3.04v-3.04h3.04v-3.04h-6.07v3.04h-3.04v3.04H0v75.88h3.04v6.07h6.07v3.04h51.6v-3.04h6.07v-6.07h3.04V9.11h-3.04Z"/><path class="cls-1" d="M102.09,60.7v-3.68h-3.68v-3.68h-3.68v-3.68h-3.68v-29.5h3.68v-3.68h3.68v-3.68h3.68v-3.7h22.12v3.7h3.68v3.68h3.7v3.68h3.68v29.5h-3.68v3.68h-3.7v3.68h-3.68v3.68h-22.12ZM120.53,53.34v-3.68h3.68v-3.7h3.68v-22.09h-3.68v-3.7h-3.68v-3.68h-14.74v3.68h-3.7v3.7h-3.68v22.09h3.68v3.7h3.7v3.68h14.74Z"/><path class="cls-1" d="M149.89,60.7v-3.68h-3.68v-3.68h-3.68v-29.47h7.36v25.8h3.68v3.68h9.22v-3.68h3.68v-25.8h7.38v36.83h-7.38v-3.68h-3.68v3.68h-12.9Z"/><path class="cls-1" d="M189.18,60.7v-3.68h-3.68v-27.64h-5.52v-5.52h5.52v-11.06h7.38v11.06h7.36v5.52h-7.36v23.96h7.36v7.36h-11.06Z"/><path class="cls-1" d="M206.38,60.7V12.81h7.36v47.89h-7.36Z"/><path class="cls-1" d="M221.2,20.17v-7.36h7.36v7.36h-7.36ZM221.2,60.7V23.87h7.36v36.83h-7.36Z"/><path class="cls-1" d="M236,60.7V23.87h7.36v3.68h3.68v-3.68h12.9v3.68h3.7v3.68h3.68v29.47h-7.38v-25.8h-3.68v-3.68h-9.22v3.68h-3.68v25.8h-7.36Z"/><path class="cls-1" d="M281.73,60.7v-3.68h-3.68v-3.68h-3.68v-22.12h3.68v-3.68h3.68v-3.68h18.44v3.68h3.68v3.68h3.68v12.9h-25.8v5.54h3.68v3.68h11.06v-3.68h11.06v3.68h-3.68v3.68h-3.68v3.68h-18.44ZM300.18,38.61v-3.7h-3.7v-3.68h-11.06v3.68h-3.68v3.7h18.44Z"/><path class="cls-1" d="M321.81,60.7v-3.68h-3.68v-3.68h-3.68v-3.68h11.03v3.68h12.9v-7.38h-12.9v-3.68h-7.36v-3.68h-3.68v-7.38h3.68v-3.68h3.68v-3.68h18.44v3.68h3.68v3.68h3.68v3.68h-11.06v-3.68h-12.9v7.38h12.9v3.68h7.38v3.68h3.68v7.38h-3.68v3.68h-3.68v3.68h-18.44Z"/></g></svg>
