<?xml version="1.0" encoding="UTF-8"?><svg id="Layer_2" xmlns="http://www.w3.org/2000/svg" viewBox="0 0 129.09 196.26"><defs><style>.cls-1{fill:#fff;}</style></defs><g id="Layer_1-2"><rect class="cls-1" x="39.12" y="3.91" width="3.91" height="3.91"/><polygon class="cls-1" points="46.94 7.82 50.86 7.82 54.77 7.82 54.77 3.91 50.86 3.91 50.86 0 46.94 0 43.03 0 43.03 3.91 46.94 3.91 46.94 7.82"/><polygon class="cls-1" points="58.68 7.82 62.59 7.82 66.5 7.82 66.5 3.91 62.59 3.91 62.59 0 58.68 0 54.77 0 54.77 3.91 58.68 3.91 58.68 7.82"/><polygon class="cls-1" points="70.42 7.82 74.33 7.82 78.24 7.82 78.24 3.91 74.33 3.91 74.33 0 70.42 0 66.5 0 66.5 3.91 70.42 3.91 70.42 7.82"/><polygon class="cls-1" points="82.15 7.82 86.06 7.82 86.06 11.74 89.98 11.74 93.89 11.74 97.8 11.74 97.8 7.82 101.71 7.82 101.71 3.91 97.8 3.91 97.8 0 93.89 0 89.98 0 89.98 3.91 93.89 3.91 93.89 7.82 89.98 7.82 89.98 3.91 86.06 3.91 86.06 0 82.15 0 78.24 0 78.24 3.91 82.15 3.91 82.15 7.82"/><polygon class="cls-1" points="105.62 7.82 109.53 7.82 113.45 7.82 113.45 11.74 117.36 11.74 121.27 11.74 121.27 7.82 117.36 7.82 117.36 3.91 113.45 3.91 109.53 3.91 109.53 0 105.62 0 101.71 0 101.71 3.91 105.62 3.91 105.62 7.82"/><rect class="cls-1" x="43.03" y="7.82" width="3.91" height="3.91"/><rect class="cls-1" x="54.77" y="7.82" width="3.91" height="3.91"/><rect class="cls-1" x="66.5" y="7.82" width="3.91" height="3.91"/><rect class="cls-1" x="78.24" y="7.82" width="3.91" height="3.91"/><rect class="cls-1" x="101.71" y="7.82" width="3.91" height="3.91"/><polygon class="cls-1" points="39.12 39.12 43.03 39.12 46.94 39.12 50.86 39.12 54.77 39.12 58.68 39.12 62.59 39.12 66.5 39.12 70.42 39.12 74.33 39.12 78.24 39.12 78.24 35.21 74.33 35.21 70.42 35.21 66.5 35.21 62.59 35.21 58.68 35.21 54.77 35.21 50.86 35.21 46.94 35.21 43.03 35.21 39.12 35.21 39.12 39.12"/><polygon class="cls-1" points="66.5 50.86 62.59 50.86 58.68 50.86 54.77 50.86 50.86 50.86 46.94 50.86 43.03 50.86 39.12 50.86 35.21 50.86 31.3 50.86 31.3 54.77 35.21 54.77 39.12 54.77 43.03 54.77 46.94 54.77 50.86 54.77 54.77 54.77 58.68 54.77 62.59 54.77 66.5 54.77 70.42 54.77 74.33 54.77 74.33 50.86 70.42 50.86 66.5 50.86"/><polygon class="cls-1" points="43.03 101.71 46.94 101.71 50.86 101.71 54.77 101.71 58.68 101.71 62.59 101.71 66.5 101.71 70.42 101.71 74.33 101.71 78.24 101.71 82.15 101.71 86.06 101.71 89.98 101.71 93.89 101.71 97.8 101.71 101.71 101.71 105.62 101.71 109.53 101.71 109.53 97.8 105.62 97.8 101.71 97.8 97.8 97.8 93.89 97.8 89.98 97.8 86.06 97.8 82.15 97.8 78.24 97.8 74.33 97.8 70.42 97.8 66.5 97.8 62.59 97.8 58.68 97.8 54.77 97.8 50.86 97.8 46.94 97.8 43.03 97.8 43.03 93.89 43.03 89.97 46.94 89.97 50.86 89.97 54.77 89.97 58.68 89.97 62.59 89.97 66.5 89.97 70.42 89.97 74.33 89.97 78.24 89.97 78.24 86.06 82.15 86.06 86.06 86.06 89.98 86.06 93.89 86.06 97.8 86.06 101.71 86.06 105.62 86.06 109.53 86.06 109.53 82.15 105.62 82.15 101.71 82.15 97.8 82.15 93.89 82.15 89.98 82.15 86.06 82.15 82.15 82.15 82.15 78.24 82.15 74.33 86.06 74.33 86.06 70.42 89.98 70.42 93.89 70.42 97.8 70.42 101.71 70.42 105.62 70.42 109.53 70.42 109.53 66.5 105.62 66.5 101.71 66.5 97.8 66.5 93.89 66.5 89.98 66.5 89.98 62.59 89.98 58.68 93.89 58.68 93.89 54.77 97.8 54.77 101.71 54.77 105.62 54.77 109.53 54.77 109.53 50.86 105.62 50.86 101.71 50.86 97.8 50.86 97.8 46.94 97.8 43.03 101.71 43.03 101.71 39.12 105.62 39.12 109.53 39.12 109.53 35.21 105.62 35.21 105.62 31.3 109.53 31.3 109.53 27.38 109.53 23.47 109.53 19.56 113.45 19.56 113.45 15.65 113.45 11.74 109.53 11.74 105.62 11.74 105.62 15.65 105.62 19.56 101.71 19.56 101.71 23.47 101.71 27.38 97.8 27.38 97.8 31.3 97.8 35.21 93.89 35.21 93.89 39.12 93.89 43.03 89.98 43.03 89.98 46.94 89.98 50.86 86.06 50.86 86.06 54.77 86.06 58.68 82.15 58.68 82.15 62.59 82.15 66.5 78.24 66.5 78.24 70.42 78.24 74.33 74.33 74.33 74.33 78.24 74.33 82.15 70.42 82.15 66.5 82.15 62.59 82.15 58.68 82.15 54.77 82.15 50.86 82.15 46.94 82.15 43.03 82.15 39.12 82.15 35.21 82.15 31.3 82.15 27.38 82.15 23.47 82.15 19.56 82.15 15.65 82.15 11.74 82.15 7.82 82.15 7.82 78.24 7.82 74.33 7.82 70.42 11.74 70.42 11.74 66.5 11.74 62.59 15.65 62.59 15.65 58.68 15.65 54.77 19.56 54.77 19.56 50.86 19.56 46.94 23.47 46.94 23.47 43.03 23.47 39.12 27.38 39.12 27.38 35.21 27.38 31.3 31.3 31.3 31.3 27.38 31.3 23.47 35.21 23.47 35.21 19.56 35.21 15.65 39.12 15.65 39.12 11.74 39.12 7.82 35.21 7.82 31.3 7.82 31.3 11.74 31.3 15.65 27.38 15.65 27.38 19.56 27.38 23.47 23.47 23.47 23.47 27.38 23.47 31.3 19.56 31.3 19.56 35.21 19.56 39.12 15.65 39.12 15.65 43.03 15.65 46.94 11.74 46.94 11.74 50.86 11.74 54.77 7.82 54.77 7.82 58.68 7.82 62.59 3.91 62.59 3.91 66.5 3.91 70.42 0 70.42 0 74.33 0 78.24 0 82.15 0 86.06 3.91 86.06 7.82 86.06 7.82 89.97 11.74 89.97 15.65 89.97 19.56 89.97 23.47 89.97 27.38 89.97 31.3 89.97 35.21 89.97 35.21 93.89 35.21 97.8 35.21 101.71 35.21 105.62 35.21 109.53 39.12 109.53 43.03 109.53 43.03 105.62 43.03 101.71"/><polygon class="cls-1" points="125.18 11.74 121.27 11.74 121.27 15.65 121.27 19.56 121.27 23.47 121.27 27.38 121.27 31.3 121.27 35.21 121.27 39.12 121.27 43.03 121.27 46.94 121.27 50.86 121.27 54.77 121.27 58.68 121.27 62.59 121.27 66.5 121.27 70.42 121.27 74.33 121.27 78.24 121.27 82.15 121.27 86.06 121.27 89.97 121.27 93.89 121.27 97.8 121.27 101.71 121.27 105.62 121.27 109.53 117.36 109.53 117.36 113.45 113.45 113.45 109.53 113.45 105.62 113.45 101.71 113.45 97.8 113.45 93.89 113.45 89.98 113.45 86.06 113.45 82.15 113.45 78.24 113.45 74.33 113.45 70.42 113.45 66.5 113.45 62.59 113.45 58.68 113.45 54.77 113.45 50.86 113.45 50.86 109.53 46.94 109.53 43.03 109.53 43.03 113.45 43.03 117.36 46.94 117.36 50.86 117.36 50.86 121.27 54.77 121.27 58.68 121.27 62.59 121.27 66.5 121.27 70.42 121.27 74.33 121.27 78.24 121.27 82.15 121.27 86.06 121.27 89.98 121.27 93.89 121.27 97.8 121.27 101.71 121.27 105.62 121.27 109.53 121.27 113.45 121.27 117.36 121.27 117.36 117.36 121.27 117.36 125.18 117.36 125.18 113.45 125.18 109.53 129.09 109.53 129.09 105.62 129.09 101.71 129.09 97.8 129.09 93.89 129.09 89.97 129.09 86.06 129.09 82.15 129.09 78.24 129.09 74.33 129.09 70.42 129.09 66.5 129.09 62.59 129.09 58.68 129.09 54.77 129.09 50.86 129.09 46.94 129.09 43.03 129.09 39.12 129.09 35.21 129.09 31.3 129.09 27.38 129.09 23.47 129.09 19.56 129.09 15.65 129.09 11.74 125.18 11.74"/><path class="cls-1" d="M.31,196.26v-7.35h7.35v7.35H.31Z"/><path class="cls-1" d="M19.53,196.26v-44.17H4.81v-7.37h36.79v7.37h-14.72v44.17h-7.35Z"/><path class="cls-1" d="M46.63,196.26v-11.02h3.67v-3.7h3.67v-3.67h3.67v-3.67h3.7v-7.37h-3.7v-3.67h-3.67v-3.67h-3.67v-3.7h-3.67v-11.05h7.35v7.37h3.67v3.67h3.7v3.7h3.67v3.67h3.67v-3.67h3.7v-3.7h3.67v-3.67h3.67v-7.37h7.37v11.05h-3.7v3.7h-3.67v3.67h-3.67v3.67h-3.67v7.37h3.67v3.67h3.67v3.67h3.67v3.7h3.7v11.02h-7.37v-7.35h-3.67v-3.67h-3.67v-3.7h-3.7v-3.67h-3.67v3.67h-3.67v3.7h-3.7v3.67h-3.67v7.35h-7.35Z"/><path class="cls-1" d="M106.9,196.26v-44.17h-14.72v-7.37h36.79v7.37h-14.72v44.17h-7.35Z"/></g></svg>
